<svg xmlns="http://www.w3.org/2000/svg" xmlns:xlink="http://www.w3.org/1999/xlink" width="1366" zoomAndPan="magnify" viewBox="0 0 1024.5 576" height="768" preserveAspectRatio="xMidYMid meet" version="1.0"><defs><clipPath id="bd0baa88d6"><path d="M 391.441406 0.984375 L 946 0.984375 L 946 545.015625 L 391.441406 545.015625 Z M 391.441406 0.984375 " clip-rule="nonzero"/></clipPath><clipPath id="3da8db7ccb"><path d="M 448.414062 0.984375 L 888.773438 0.984375 C 903.882812 0.984375 918.375 6.988281 929.058594 17.671875 C 939.746094 28.355469 945.746094 42.847656 945.746094 57.957031 L 945.746094 488.042969 C 945.746094 503.152344 939.746094 517.644531 929.058594 528.328125 C 918.375 539.011719 903.882812 545.015625 888.773438 545.015625 L 448.414062 545.015625 C 433.304688 545.015625 418.8125 539.011719 408.128906 528.328125 C 397.445312 517.644531 391.441406 503.152344 391.441406 488.042969 L 391.441406 57.957031 C 391.441406 42.847656 397.445312 28.355469 408.128906 17.671875 C 418.8125 6.988281 433.304688 0.984375 448.414062 0.984375 Z M 448.414062 0.984375 " clip-rule="nonzero"/></clipPath><clipPath id="c5e4a343cd"><path d="M 0.441406 0.984375 L 554.960938 0.984375 L 554.960938 545.015625 L 0.441406 545.015625 Z M 0.441406 0.984375 " clip-rule="nonzero"/></clipPath><clipPath id="63b9a76904"><path d="M 57.414062 0.984375 L 497.773438 0.984375 C 512.882812 0.984375 527.375 6.988281 538.058594 17.671875 C 548.746094 28.355469 554.746094 42.847656 554.746094 57.957031 L 554.746094 488.042969 C 554.746094 503.152344 548.746094 517.644531 538.058594 528.328125 C 527.375 539.011719 512.882812 545.015625 497.773438 545.015625 L 57.414062 545.015625 C 42.304688 545.015625 27.8125 539.011719 17.128906 528.328125 C 6.445312 517.644531 0.441406 503.152344 0.441406 488.042969 L 0.441406 57.957031 C 0.441406 42.847656 6.445312 28.355469 17.128906 17.671875 C 27.8125 6.988281 42.304688 0.984375 57.414062 0.984375 Z M 57.414062 0.984375 " clip-rule="nonzero"/></clipPath><clipPath id="0376420796"><rect x="0" width="555" y="0" height="546"/></clipPath><clipPath id="aba7805db6"><path d="M 0.253906 65.875 L 599.414062 65.875 L 599.414062 545.027344 L 0.253906 545.027344 Z M 0.253906 65.875 " clip-rule="nonzero"/></clipPath><clipPath id="8c4f1d52d1"><path d="M 0.253906 0.875 L 599.175781 0.875 L 599.175781 480.027344 L 0.253906 480.027344 Z M 0.253906 0.875 " clip-rule="nonzero"/></clipPath><clipPath id="a9876405d6"><rect x="0" width="600" y="0" height="481"/></clipPath><clipPath id="1f374a186e"><path d="M 0.253906 124.773438 L 327.519531 124.773438 L 327.519531 320.066406 L 0.253906 320.066406 Z M 0.253906 124.773438 " clip-rule="nonzero"/></clipPath><clipPath id="d943c21741"><path d="M 13.746094 124.773438 L 313.574219 124.773438 C 321.023438 124.773438 327.066406 130.816406 327.066406 138.269531 L 327.066406 306.574219 C 327.066406 314.027344 321.023438 320.066406 313.574219 320.066406 L 13.746094 320.066406 C 6.292969 320.066406 0.253906 314.027344 0.253906 306.574219 L 0.253906 138.269531 C 0.253906 130.816406 6.292969 124.773438 13.746094 124.773438 Z M 13.746094 124.773438 " clip-rule="nonzero"/></clipPath><clipPath id="5084ae7aaa"><path d="M 0.253906 0.773438 L 327 0.773438 L 327 196.066406 L 0.253906 196.066406 Z M 0.253906 0.773438 " clip-rule="nonzero"/></clipPath><clipPath id="570c9bb958"><path d="M 13.746094 0.773438 L 313.574219 0.773438 C 321.023438 0.773438 327.066406 6.816406 327.066406 14.269531 L 327.066406 182.574219 C 327.066406 190.027344 321.023438 196.066406 313.574219 196.066406 L 13.746094 196.066406 C 6.292969 196.066406 0.253906 190.027344 0.253906 182.574219 L 0.253906 14.269531 C 0.253906 6.816406 6.292969 0.773438 13.746094 0.773438 Z M 13.746094 0.773438 " clip-rule="nonzero"/></clipPath><clipPath id="310b3f7aa1"><rect x="0" width="328" y="0" height="197"/></clipPath><clipPath id="fddb4b46b7"><path d="M 273 0.972656 L 546 0.972656 L 546 273 L 273 273 Z M 273 0.972656 " clip-rule="nonzero"/></clipPath><clipPath id="e5344bc70c"><path d="M 390.171875 0.988281 L 545.734375 117.167969 L 429.554688 272.730469 L 273.992188 156.550781 Z M 390.171875 0.988281 " clip-rule="nonzero"/></clipPath><clipPath id="690f700ee5"><path d="M 0.808594 0.972656 L 272.835938 0.972656 L 272.835938 272.761719 L 0.808594 272.761719 Z M 0.808594 0.972656 " clip-rule="nonzero"/></clipPath><clipPath id="506055ee30"><path d="M 117.171875 0.988281 L 272.734375 117.167969 L 156.554688 272.730469 L 0.992188 156.550781 Z M 117.171875 0.988281 " clip-rule="nonzero"/></clipPath><clipPath id="6f2278bcb2"><rect x="0" width="273" y="0" height="273"/></clipPath><clipPath id="d6e29a30ce"><path d="M 390.015625 0.984375 L 586.441406 0.984375 L 586.441406 193.6875 L 390.015625 193.6875 Z M 390.015625 0.984375 " clip-rule="nonzero"/></clipPath><clipPath id="5370aa8275"><path d="M 0.015625 0.984375 L 196.441406 0.984375 L 196.441406 193.6875 L 0.015625 193.6875 Z M 0.015625 0.984375 " clip-rule="nonzero"/></clipPath><clipPath id="d0547b3119"><rect x="0" width="197" y="0" height="194"/></clipPath><clipPath id="c964919505"><rect x="0" width="947" y="0" height="546"/></clipPath></defs><g transform="matrix(1, 0, 0, 1, 39, 15)"><g clip-path="url(#c964919505)"><g clip-path="url(#bd0baa88d6)"><g clip-path="url(#3da8db7ccb)"><g transform="matrix(1, 0, 0, 1, 391, -0.00000000000005862)"><g clip-path="url(#0376420796)"><g clip-path="url(#c5e4a343cd)"><g clip-path="url(#63b9a76904)"><path fill="#8d01fe" d="M 0.441406 0.984375 L 555.097656 0.984375 L 555.097656 545.015625 L 0.441406 545.015625 Z M 0.441406 0.984375 " fill-opacity="1" fill-rule="nonzero"/></g></g></g></g></g></g><g clip-path="url(#aba7805db6)"><g transform="matrix(1, 0, 0, 1, 0, 65)"><g clip-path="url(#a9876405d6)"><g clip-path="url(#8c4f1d52d1)"><path fill="#8d01fe" d="M 359.605469 0.875 L 539.285156 0.875 C 572.375 0.875 598.878906 27.675781 598.878906 60.765625 L 599.175781 420.121094 C 599.175781 453.210938 572.375 480.011719 539.285156 480.011719 L 60.144531 480.011719 C 27.054688 480.011719 0.253906 453.210938 0.253906 420.121094 L 0.253906 120.660156 C 0.253906 87.570312 27.054688 60.765625 60.144531 60.765625 L 299.714844 60.765625 Z M 359.605469 0.875 " fill-opacity="1" fill-rule="nonzero"/></g></g></g></g><g clip-path="url(#1f374a186e)"><g clip-path="url(#d943c21741)"><g transform="matrix(1, 0, 0, 1, 0, 124)"><g clip-path="url(#310b3f7aa1)"><g clip-path="url(#5084ae7aaa)"><g clip-path="url(#570c9bb958)"><path fill="#8d01fe" d="M 0.253906 0.773438 L 326.757812 0.773438 L 326.757812 196.066406 L 0.253906 196.066406 Z M 0.253906 0.773438 " fill-opacity="1" fill-rule="nonzero"/></g></g></g></g></g></g><g clip-path="url(#fddb4b46b7)"><g clip-path="url(#e5344bc70c)"><g transform="matrix(1, 0, 0, 1, 273, -0.00000000000005862)"><g clip-path="url(#6f2278bcb2)"><g clip-path="url(#690f700ee5)"><g clip-path="url(#506055ee30)"><path fill="#8d01fe" d="M 117.171875 0.988281 L 272.734375 117.167969 L 156.554688 272.730469 L 0.992188 156.550781 Z M 117.171875 0.988281 " fill-opacity="1" fill-rule="nonzero"/></g></g></g></g></g></g><g clip-path="url(#d6e29a30ce)"><g transform="matrix(1, 0, 0, 1, 390, -0.00000000000005862)"><g clip-path="url(#d0547b3119)"><g clip-path="url(#5370aa8275)"><path fill="#8d01fe" d="M 0.015625 0.984375 L 196.484375 0.984375 L 196.484375 193.6875 L 0.015625 193.6875 Z M 0.015625 0.984375 " fill-opacity="1" fill-rule="nonzero"/></g></g></g></g></g></g></svg>